<?xml version="1.0" encoding="UTF-8"?>
<svg version="1.1" xmlns="http://www.w3.org/2000/svg" width="250" height="84">
<path d="M0 0 C2 1 4 2 6 3 C6 3.99 6 4.98 6 6 C6.99 6 7.98 6 9 6 C9.23697241 13.30792346 8.32070236 20.06112628 7.0625 27.25 C4.92021804 40.1195882 3.47153489 51.94925947 5 65 C6.485 65.495 6.485 65.495 8 66 C9.75 67.875 9.75 67.875 11 70 C10.505 71.485 10.505 71.485 10 73 C7.69 73 5.38 73 3 73 C2.67 72.01 2.34 71.02 2 70 C1.34 70 0.68 70 0 70 C-5.2805437 63.81656541 -6.63373504 58.26632434 -6.2109375 50.2734375 C-6.10652344 49.14808594 -6.10652344 49.14808594 -6 48 C-7.03125 48.4125 -8.0625 48.825 -9.125 49.25 C-13 50 -13 50 -16 48.75 C-20.28412585 45.41532907 -23.09221697 40.50792398 -26 36 C-26.50944993 38.81107194 -27.0077016 41.62341589 -27.5 44.4375 C-27.64308594 45.22060547 -27.78617187 46.00371094 -27.93359375 46.81054688 C-29.16214191 53.9185755 -30.42926771 61.3557938 -27 68 C-29 70 -29 70 -31.625 70.125 C-32.40875 70.08375 -33.1925 70.0425 -34 70 C-34.33 69.01 -34.66 68.02 -35 67 C-35.66 67 -36.32 67 -37 67 C-37.99 64.69 -38.98 62.38 -40 60 C-41.11375 60.020625 -42.2275 60.04125 -43.375 60.0625 C-47 60 -47 60 -49 59 C-49 58.34 -49 57.68 -49 57 C-49.66 57 -50.32 57 -51 57 C-51.66 56.34 -52.32 55.68 -53 55 C-55.54644525 55.02385429 -57.86355234 55.18606904 -60.375 55.5 C-61.04789063 55.55414063 -61.72078125 55.60828125 -62.4140625 55.6640625 C-64.70234048 55.88543242 -64.70234048 55.88543242 -68 57 C-70.36792547 59.93096234 -70.36792547 59.93096234 -72 63 C-74.25 63.875 -74.25 63.875 -76 64 C-76.268125 63.360625 -76.53625 62.72125 -76.8125 62.0625 C-77.88667752 59.66868314 -77.88667752 59.66868314 -81 59 C-79.77112912 53.30250775 -78.23107634 51.13033642 -74 47 C-71.06771843 42.29170585 -71.06771843 42.29170585 -70 37 C-75.94 37.99 -81.88 38.98 -88 40 C-88 45.00147987 -87.97103025 46.81156072 -86 51 C-85.01 51 -84.02 51 -83 51 C-83.88082902 56.4611399 -83.88082902 56.4611399 -85 59 C-88.125 60.5 -88.125 60.5 -91 61 C-91.268125 60.360625 -91.53625 59.72125 -91.8125 59.0625 C-92.88667752 56.66868314 -92.88667752 56.66868314 -96 56 C-97.97575215 53.01621104 -98.3468067 50.27378179 -98.625 46.75 C-98.69976562 45.85796875 -98.77453125 44.9659375 -98.8515625 44.046875 C-98.90054688 43.37140625 -98.94953125 42.6959375 -99 42 C-102.96 41.505 -102.96 41.505 -107 41 C-107 40.01 -107 39.02 -107 38 C-107.99 38 -108.98 38 -110 38 C-110.33 36.68 -110.66 35.36 -111 34 C-107.0764666 31.31869497 -103.76369423 30.36470918 -99.08984375 29.61328125 C-98.11586388 29.45317818 -98.11586388 29.45317818 -97.12220764 29.2898407 C-95.75731739 29.06743123 -94.39159978 28.85004645 -93.02514648 28.63745117 C-90.93871206 28.31268866 -88.85510292 27.97318041 -86.77148438 27.63085938 C-76.67594488 26 -76.67594488 26 -72 26 C-72 25.34 -72 24.68 -72 24 C-69.97954558 24.60183749 -67.97888961 25.27306096 -66 26 C-65.505 26.99 -65.505 26.99 -65 28 C-64.01 25.36 -63.02 22.72 -62 20 C-59.69 20 -57.38 20 -55 20 C-55 21.32 -55 22.64 -55 24 C-54.34 24.33 -53.68 24.66 -53 25 C-52.25390625 26.93359375 -52.25390625 26.93359375 -51.5625 29.4375 C-51.30984375 30.33082031 -51.0571875 31.22414063 -50.796875 32.14453125 C-50.40242188 33.55798828 -50.40242188 33.55798828 -50 35 C-49.44146087 36.8761837 -48.87916745 38.75125529 -48.3125 40.625 C-47.875 42.08333333 -47.4375 43.54166667 -47 45 C-46.01 45 -45.02 45 -44 45 C-44 45.99 -44 46.98 -44 48 C-42.515 48.495 -42.515 48.495 -41 49 C-40.505 51.475 -40.505 51.475 -40 54 C-39.30069165 50.3389151 -38.64573425 46.67090135 -38 43 C-37.87157715 42.27651367 -37.7431543 41.55302734 -37.61083984 40.80761719 C-36.04627926 31.88795153 -34.56732639 23.34587963 -35.1875 14.25 C-35 12 -35 12 -33.69921875 10.16796875 C-32 9 -32 9 -28.8125 9.3125 C-27.884375 9.539375 -26.95625 9.76625 -26 10 C-26 11.32 -26 12.64 -26 14 C-25.01 13.67 -24.02 13.34 -23 13 C-22.83395264 13.68626465 -22.66790527 14.3725293 -22.49682617 15.07958984 C-21.7391707 18.18116801 -20.96358841 21.27798526 -20.1875 24.375 C-19.92646484 25.45523437 -19.66542969 26.53546875 -19.39648438 27.6484375 C-19.13544922 28.6796875 -18.87441406 29.7109375 -18.60546875 30.7734375 C-18.36981201 31.72653809 -18.13415527 32.67963867 -17.89135742 33.66162109 C-17.13299393 36.33015686 -17.13299393 36.33015686 -14 38 C-13.03810003 36.27281484 -12.08063492 34.54315942 -11.125 32.8125 C-10.59132813 31.84957031 -10.05765625 30.88664062 -9.5078125 29.89453125 C-6.46899895 24.06095394 -4.96829046 18.17640929 -3.4375 11.8125 C-3.00083205 10.00599322 -2.5621288 8.19997683 -2.12109375 6.39453125 C-1.9295874 5.59893799 -1.73808105 4.80334473 -1.54077148 3.98364258 C-1 2 -1 2 0 0 Z M-59 38 C-60.485 41.96 -60.485 41.96 -62 46 C-60.02 46 -58.04 46 -56 46 C-56.66 43.36 -57.32 40.72 -58 38 C-58.33 38 -58.66 38 -59 38 Z " fill="#BB3C3C" transform="translate(197,4)"/>
<path d="M0 0 C1.3125 2.125 1.3125 2.125 2 4 C2.99 4.33 3.98 4.66 5 5 C6.14012514 8.82756298 6.57869206 10.80868606 4.80078125 14.46875 C3.29603694 16.77140958 1.83594233 18.95025172 0 21 C-0.66 21 -1.32 21 -2 21 C-2 21.66 -2 22.32 -2 23 C-4.046875 24.65625 -4.046875 24.65625 -6.75 26.5 C-7.63171875 27.1084375 -8.5134375 27.716875 -9.421875 28.34375 C-12 30 -12 30 -14.265625 31.09375 C-16.1844479 31.88087837 -16.1844479 31.88087837 -17 34 C-15.7315625 34.185625 -15.7315625 34.185625 -14.4375 34.375 C-10.84763202 35.02770327 -7.49175125 35.95247463 -4 37 C-3.01524786 35.90081184 -2.03739527 34.7954398 -1.0625 33.6875 C-0.24458984 32.76517578 -0.24458984 32.76517578 0.58984375 31.82421875 C2.20081559 29.94758042 2.20081559 29.94758042 3 27 C3.66 27 4.32 27 5 27 C5.11601563 26.44828125 5.23203125 25.8965625 5.3515625 25.328125 C6.10039055 22.63956164 7.18499134 20.27426079 8.375 17.75 C10.47065844 13.22459264 12.3175214 8.69322978 14 4 C16.31 4 18.62 4 21 4 C21 5.32 21 6.64 21 8 C21.66 8 22.32 8 23 8 C23.7365363 10.44039027 24.47022255 12.88156324 25.19921875 15.32421875 C25.67443394 16.91213292 26.1543714 18.49866641 26.64453125 20.08203125 C27.60916495 23.2674044 28 25.61578379 28 29 C29.65 28.67 31.3 28.34 33 28 C32.67 29.32 32.34 30.64 32 32 C32.99 32 33.98 32 35 32 C35.495 34.97 35.495 34.97 36 38 C37.485 38.495 37.485 38.495 39 39 C38.3125 40.9375 38.3125 40.9375 37 43 C34.0067373 44.13258589 32.39853116 44.111218 29.3125 43.25 C27 42 27 42 25 39 C23.02252878 38.63702064 23.02252878 38.63702064 20.875 38.8125 C19.59625 38.874375 18.3175 38.93625 17 39 C17 40.32 17 41.64 17 43 C17.66 43 18.32 43 19 43 C19.625 44.875 19.625 44.875 20 47 C17.81317459 49.18682541 16.87317613 49.49888461 13.9375 50.1875 C13.22464844 50.36667969 12.51179688 50.54585937 11.77734375 50.73046875 C3.42484023 51.54104926 -3.7419427 48.91393799 -11.4375 45.9375 C-13.39353154 45.19397924 -15.35051645 44.45296014 -17.30859375 43.71484375 C-18.16251709 43.38605225 -19.01644043 43.05726074 -19.89624023 42.71850586 C-21.94493087 41.89226539 -21.94493087 41.89226539 -24 42 C-24 47.28 -24 52.56 -24 58 C-26.31 58.66 -28.62 59.32 -31 60 C-35.99772478 54.37139872 -35.50577191 48.95022887 -35.3125 41.6875 C-35.30283203 40.57826172 -35.29316406 39.46902344 -35.28320312 38.32617188 C-35.16830357 30.16830357 -35.16830357 30.16830357 -34 29 C-33.7882613 26.37091119 -33.62365621 23.75841938 -33.5 21.125 C-33.13345287 13.40035861 -33.13345287 13.40035861 -32 10 C-37.61 12.64 -43.22 15.28 -49 18 C-54 13 -54 13 -56 10 C-56 9.01 -56 8.02 -56 7 C-55.28457031 6.84144531 -54.56914063 6.68289062 -53.83203125 6.51953125 C-48.15581577 5.19043034 -42.7882527 3.61309978 -37.375 1.4375 C-25.67778107 -3.17470509 -11.66429589 -6.16226953 0 0 Z M-22 7 C-23.27809679 12.51028521 -23.10224037 18.3767797 -23 24 C-19.31824648 21.6897496 -15.65462845 19.35291267 -12 17 C-11.2678125 16.53722656 -10.535625 16.07445312 -9.78125 15.59765625 C-6.11495322 13.16640436 -4.11154458 11.32267337 -3 7 C-6.51737321 5.82754226 -9.3575132 5.86733715 -13.0625 5.875 C-14.31160156 5.87242188 -15.56070313 5.86984375 -16.84765625 5.8671875 C-19.90200713 5.78051724 -19.90200713 5.78051724 -22 7 Z M18 22 C18 22.99 18 23.98 18 25 C17.34 25 16.68 25 16 25 C15.67 26.65 15.34 28.3 15 30 C16.65 29.67 18.3 29.34 20 29 C19.67 26.69 19.34 24.38 19 22 C18.67 22 18.34 22 18 22 Z M9 39 C8.67 39.66 8.34 40.32 8 41 C9.32 40.67 10.64 40.34 12 40 C11.01 39.67 10.02 39.34 9 39 Z " fill="#BA3B3B" transform="translate(58,22)"/>
<path d="M0 0 C2.475 0.99 2.475 0.99 5 2 C5 2.99 5 3.98 5 5 C5.99 5 6.98 5 8 5 C7.72690064 8.91442413 7.25007787 10.7026101 4.6875 13.75 C2 16 2 16 -0.1875 17.0625 C-2.60640068 18.31365553 -2.82596952 19.5407151 -4 22 C-5.1966455 24.09006861 -6.4058711 26.17296559 -7.625 28.25 C-8.25664062 29.32765625 -8.88828125 30.4053125 -9.5390625 31.515625 C-10.02117187 32.33546875 -10.50328125 33.1553125 -11 34 C-10.45730469 34.47050781 -9.91460937 34.94101562 -9.35546875 35.42578125 C-8.64003906 36.04839844 -7.92460937 36.67101563 -7.1875 37.3125 C-6.47980469 37.92738281 -5.77210938 38.54226562 -5.04296875 39.17578125 C-0.15245009 43.54264973 -0.15245009 43.54264973 0.9375 46.8125 C1.02403064 51.22556259 -0.06449582 52.71503104 -3 56 C-7.91387689 59.52208517 -12.85055992 62 -19 62 C-23.12019065 60.70739117 -24.74183296 59.32436372 -27.4375 55.9375 C-29.77541259 51.34934655 -29.18473846 46.87979689 -28 42 C-26.5 39.0625 -26.5 39.0625 -25 37 C-24.67 36.01 -24.34 35.02 -24 34 C-24.66 34 -25.32 34 -26 34 C-26.33 32.68 -26.66 31.36 -27 30 C-27.66 30 -28.32 30 -29 30 C-31.30998732 26.73884143 -31.22382201 23.83638004 -30.59765625 19.95703125 C-29.07077224 14.9572346 -24.41143979 12.3308047 -20.02734375 9.98046875 C-9.10060799 4.69605512 -9.10060799 4.69605512 -3 5 C-2.690625 4.360625 -2.38125 3.72125 -2.0625 3.0625 C-1 1 -1 1 0 0 Z M-18.625 21.375 C-20.21531408 22.89968321 -20.21531408 22.89968321 -20 25 C-20.66 25 -21.32 25 -22 25 C-22 26.32 -22 27.64 -22 29 C-21.34 29 -20.68 29 -20 29 C-17.68407978 25.77885843 -17.68407978 25.77885843 -17 22 C-16.34 22 -15.68 22 -15 22 C-15 21.34 -15 20.68 -15 20 C-17.10031679 19.78468592 -17.10031679 19.78468592 -18.625 21.375 Z M-15 41 C-15.67408308 42.26691507 -16.33900497 43.53870749 -17 44.8125 C-17.37125 45.52019531 -17.7425 46.22789063 -18.125 46.95703125 C-19.19685358 49.08920729 -19.19685358 49.08920729 -19 52 C-14.60316512 50.80086322 -11.90159066 49.5711885 -9 46 C-9 45.34 -9 44.68 -9 44 C-10.98 43.01 -12.96 42.02 -15 41 Z " fill="#BB3C3C" transform="translate(238,10)"/>
<path d="M0 0 C0.33 0.66 0.66 1.32 1 2 C0.34 2 -0.32 2 -1 2 C-1 2.66 -1 3.32 -1 4 C0.32 3.67 1.64 3.34 3 3 C3.66 4.32 4.32 5.64 5 7 C3.02 7.66 1.04 8.32 -1 9 C-1.33 8.34 -1.66 7.68 -2 7 C-1.34 7 -0.68 7 0 7 C0 6.34 0 5.68 0 5 C-0.99 5 -1.98 5 -3 5 C-3.33 4.01 -3.66 3.02 -4 2 C-2.68 1.34 -1.36 0.68 0 0 Z " fill="#BF4040" transform="translate(185,45)"/>
<path d="M0 0 C-0.7425 0.226875 -1.485 0.45375 -2.25 0.6875 C-5.51139591 2.24407532 -6.92894975 4.08518854 -9 7 C-9.99 6.67 -10.98 6.34 -12 6 C-11.67 5.01 -11.34 4.02 -11 3 C-10.01 2.67 -9.02 2.34 -8 2 C-8.33 1.34 -8.66 0.68 -9 0 C-2.25 -1.125 -2.25 -1.125 0 0 Z " fill="#B63737" transform="translate(134,59)"/>
<path d="M0 0 C0.99 0.33 1.98 0.66 3 1 C2.35499066 4.48305042 0.95865224 7.06202164 -1 10 C-1.33 10 -1.66 10 -2 10 C-2.6875 7.25 -2.6875 7.25 -3 4 C-1.5625 1.625 -1.5625 1.625 0 0 Z " fill="#B83939" transform="translate(236,56)"/>
<path d="M0 0 C2.31 0 4.62 0 7 0 C5.25 5.75 5.25 5.75 3 8 C1.875 4.25 1.875 4.25 3 2 C2.01 2 1.02 2 0 2 C0 1.34 0 0.68 0 0 Z " fill="#C04141" transform="translate(26,67)"/>
<path d="M0 0 C0.33 0.66 0.66 1.32 1 2 C0.34 1.67 -0.32 1.34 -1 1 C-0.67 0.67 -0.34 0.34 0 0 Z M-2 2 C-1.01 2.33 -0.02 2.66 1 3 C1.33 4.98 1.66 6.96 2 9 C-1.875 7.25 -1.875 7.25 -3 5 C-2.67 4.01 -2.34 3.02 -2 2 Z M2 4 C2.99 4.495 2.99 4.495 4 5 C3.01 5.495 3.01 5.495 2 6 C2 5.34 2 4.68 2 4 Z " fill="#C14242" transform="translate(210,26)"/>
<path d="M0 0 C1.32 0.66 2.64 1.32 4 2 C3.67 3.65 3.34 5.3 3 7 C2.67 6.34 2.34 5.68 2 5 C1.01 5.33 0.02 5.66 -1 6 C-0.67 4.02 -0.34 2.04 0 0 Z " fill="#B53636" transform="translate(199,5)"/>
</svg>
